<!--?xml version="1.0" standalone="no"?-->
              <svg id="sw-js-blob-svg" viewBox="0 0 100 100" xmlns="http://www.w3.org/2000/svg" version="1.1">
                    <defs> 
                        <linearGradient id="sw-gradient" x1="0" x2="1" y1="1" y2="0">
                            <stop id="stop1" stop-color="rgba(244.826, 244.826, 244.826, 1)" offset="0%"></stop>
                            <stop id="stop2" stop-color="rgba(255, 255, 255, 1)" offset="100%"></stop>
                        </linearGradient>
                    </defs>
                <path fill="url(#sw-gradient)" d="M18.3,-34.2C23.2,-28.8,26.5,-23,29.8,-17.2C33.1,-11.5,36.3,-5.7,37.3,0.6C38.4,6.9,37.1,13.8,34.5,20.7C31.9,27.6,27.8,34.4,21.9,37.5C15.9,40.6,7.9,40,1.1,38.2C-5.8,36.4,-11.7,33.3,-18.2,30.6C-24.8,27.8,-32,25.2,-37,20.2C-42,15.1,-44.8,7.6,-43.9,0.5C-43,-6.5,-38.4,-13,-34.1,-19.4C-29.9,-25.8,-26.1,-32.2,-20.4,-37.2C-14.8,-42.3,-7.4,-46.1,-0.4,-45.4C6.6,-44.8,13.3,-39.7,18.3,-34.2Z" width="100%" height="100%" transform="translate(50 50)" stroke-width="0" style="transition: all 0.3s ease 0s;" stroke="url(#sw-gradient)"></path>
              </svg>